<svg xmlns="http://www.w3.org/2000/svg" width="32" height="32" viewBox="0 0 16.9 16.9">
   <style>
path{ fill:#fff;stroke:none;stroke-width:.264583;stroke-linecap:round;stroke-linejoin:round;stroke-miterlimit:10 }
   </style>
  <g aria-label="CSV">
    <path d="M4.4 13.4h1.4q0 .9-.7 1.4-.7.6-1.7.6-1.2 0-1.8-.8-.6-.7-.7-2v-.3q0-1.3.7-2 .7-.8 1.8-.8 1 0 1.7.5.6.6.7 1.5H4.4q0-.5-.3-.7-.2-.3-.7-.3-.6 0-.8.4-.3.4-.3 1.3v.4q0 .9.3 1.3.2.4.8.4 1 0 1-1zm5 .4q0-.3-.2-.5l-.8-.4-1.1-.4-.7-.6-.2-.8q0-.8.6-1.2.7-.4 1.6-.4 1 0 1.6.4.6.5.6 1.3H9.4q0-.3-.2-.5t-.6-.2q-.4 0-.6.2l-.2.4q0 .2.3.4l.8.4q.9.3 1.4.7.5.4.5 1.2 0 .7-.6 1.2-.6.4-1.5.4l-1.2-.2q-.6-.2-1-.7-.3-.4-.3-1h1.4q0 .4.3.6.3.2.8.2l.5-.1.2-.4z"/>
    <path d="m16.6 9-2 6.2c-.5 1.4-1 1.8-1.5 0l-2-6.3 1.4-.5 1.4 5.2 1.4-5.1Z" />
  </g>
  <path d="M1 1.1h3.4v1.1H1z"/>
  <path d="M1 3h3.4v1.1H1zm0 1.9h3.4V6H1zm0 1.8h3.4v1.1H1z"/>
  <path d="M5.7 1.1h5.7v1.1H5.7zm0 1.9h5.7v1.1H5.7zm0 1.9h5.7V6H5.7zm0 1.8h5.7v1.1H5.7z"/>
  <path d="M12.9 1h2v1.2h-2zm0 2h2v1.2h-2zm0 1.9h2v1.2h-2zm0 1.8h2v1.2h-2z"/>
</svg>
